<svg xmlns="http://www.w3.org/2000/svg" viewBox="0 0 100 100" width="100" height="100">
  <rect width="100" height="100" rx="22" fill="#1a1612"/>
  <!-- outer flame -->
  <path d="M50,10 C28,38 22,58 34,72 C38,77 44,80 50,80 C56,80 62,77 66,72 C78,58 72,38 50,10Z"
    fill="#c85a1e"/>
  <!-- mid flame -->
  <path d="M50,22 C36,44 34,60 42,70 C45,74 47,76 50,76 C53,76 55,74 58,70 C66,60 64,44 50,22Z"
    fill="#d4823a"/>
  <!-- inner flame -->
  <ellipse cx="50" cy="60" rx="10" ry="16" fill="#e8a855" opacity="0.9"/>
  <!-- core -->
  <ellipse cx="50" cy="66" rx="5" ry="8" fill="#fff5cc" opacity="0.75"/>
  <!-- base glow -->
  <ellipse cx="50" cy="80" rx="18" ry="5" fill="#c85a1e" opacity="0.3"/>
</svg>
